<svg width="733" height="217" viewBox="0 0 733 217" fill="none" xmlns="http://www.w3.org/2000/svg">
<g clip-path="url(#clip0_3_309)">
<rect width="733" height="217" />
<path d="M104.964 210.156C98.9633 216.537 88.7945 216.441 82.9158 209.947L18.9286 139.264C17.5927 137.788 16.7275 135.947 16.444 133.977L2.8428 39.4387C1.27196 28.5202 8.83795 18.3914 19.7535 16.7999L87.19 6.96762C91.5912 6.32592 96.0622 6.32592 100.463 6.96762L168.387 16.8709C179.11 18.4344 186.638 28.2536 185.362 39.0148L174.141 133.727C173.889 135.853 172.962 137.842 171.495 139.401L104.964 210.156Z" fill="url(#paint0_radial_3_309)"/>
<path d="M155.207 53.4917L119.54 130.528L111.441 126.724L109.343 131.256L117.442 135.059L137.239 144.357L139.337 139.825L131.238 136.022L166.905 58.9858L166.48 43.3391L155.207 53.4917Z" fill="black" stroke="black"/>
<path d="M112.257 148.623L117.922 136.388L127.371 140.826L121.706 153.061L112.257 148.623Z" fill="black" stroke="black"/>
<path d="M77.145 58.5424L112.812 135.579L104.713 139.382L106.811 143.914L114.91 140.11L134.706 130.813L132.608 126.281L124.51 130.085L88.8431 53.0484L76.6696 43.3184L77.145 58.5424Z" fill="black" stroke="black"/>
<path d="M121.894 152.829L116.229 140.594L125.677 136.156L131.342 148.391L121.894 152.829Z" fill="black" stroke="black"/>
<path d="M22.9089 54.986L58.5755 132.022L50.4769 135.826L52.5749 140.357L60.6735 136.554L80.4702 127.256L78.3722 122.725L70.2736 126.528L34.607 49.4919L22.4335 39.762L22.9089 54.986Z" fill="black" stroke="black"/>
<path d="M67.6579 149.273L61.9932 137.037L71.4416 132.6L77.1063 144.835L67.6579 149.273Z" fill="black" stroke="black"/>
<path d="M104.57 53.4917L68.9033 130.528L60.8046 126.724L58.7066 131.256L66.8052 135.059L86.6019 144.357L88.7 139.825L80.6013 136.022L116.268 58.9858L115.843 43.3391L104.57 53.4917Z" fill="black" stroke="black"/>
<path d="M61.621 148.623L67.2856 136.388L76.7341 140.826L71.0694 153.061L61.621 148.623Z" fill="black" stroke="black"/>
<path d="M502.113 210.156C496.113 216.537 485.944 216.441 480.065 209.947L416.078 139.264C414.742 137.788 413.877 135.947 413.593 133.977L399.992 39.4387C398.421 28.5202 405.987 18.3914 416.903 16.7999L484.339 6.96762C488.741 6.32592 493.212 6.32592 497.613 6.96762L565.536 16.8709C576.26 18.4344 583.787 28.2536 582.512 39.0148L571.29 133.727C571.038 135.853 570.111 137.842 568.645 139.401L502.113 210.156Z" fill="url(#paint1_radial_3_309)"/>
<path d="M446.355 143.31C445.086 144.14 444.109 144.115 443.426 143.236C442.742 142.357 442.962 141.43 444.085 140.453C452.483 132.689 460.003 127.733 466.643 125.585C473.284 123.437 482.024 125.805 492.864 132.689C502.483 138.842 511.004 141.503 518.426 140.673C525.848 139.794 531.267 135.375 534.685 127.416C540.545 113.598 538.811 99.9014 529.485 86.3271C520.208 72.7529 507.83 64.1348 492.351 60.4727C481.609 57.9336 470.867 58.8613 460.125 63.2559C449.383 67.6504 443.059 74.1934 441.155 82.8848C438.811 93.334 441.033 100.927 447.82 105.663C454.656 110.399 461.687 111.864 468.914 110.058C469.842 109.813 470.769 109.472 471.697 109.032C473.016 108.446 473.943 108.642 474.48 109.618C475.066 110.595 474.676 111.449 473.309 112.182C471.453 112.963 470.257 113.427 469.72 113.573C462.786 115.771 455.12 114.574 446.722 109.984C438.323 105.395 434.124 96.4346 434.124 83.1045C434.124 75.7314 436.443 69.042 441.082 63.0361C445.721 56.9814 451.653 52.1475 458.88 48.5342C466.106 44.8721 474.041 42.7725 482.684 42.2354C491.375 41.6494 499.895 42.6504 508.245 45.2383C517.278 48.6563 524.847 53.5879 530.95 60.0332C537.102 66.4785 541.57 73.6318 544.353 81.4932C547.137 89.3545 548.113 97.4844 547.283 105.883C546.502 114.281 543.719 122.094 538.934 129.32C531.609 140.307 522.698 147.606 512.2 151.22C501.702 154.882 488.348 152.367 472.137 143.676C468.035 141.479 463.836 139.94 459.539 139.062C455.291 138.183 450.896 139.599 446.355 143.31ZM488.396 126.171C487.029 126.854 486.077 126.757 485.54 125.878C485.003 124.95 485.271 124.096 486.346 123.314C491.961 119.506 492.962 115.551 489.349 111.449C485.784 107.348 482.488 103.979 479.461 101.342C469.451 92.7969 466.18 85.375 469.646 79.0762C473.113 72.7773 478.68 67.5039 486.346 63.2559C487.713 62.5723 488.665 62.7188 489.202 63.6953C489.788 64.623 489.471 65.4775 488.25 66.2588C480.975 70.7998 482.439 77.3428 492.644 85.8877C501.873 93.6025 505.95 100.878 504.876 107.714C503.802 114.55 498.309 120.702 488.396 126.171Z" fill="black"/>
<path d="M617.562 137.562L617.625 111.5C617.625 104.5 616.354 100.625 613.812 99.875C613.521 99.6667 613.375 99.4167 613.375 99.125C613.375 98.7917 613.521 98.5 613.812 98.25C617.521 95.5833 620.583 91.8333 623 87C623.167 86.625 623.458 86.4375 623.875 86.4375C624.292 86.4375 624.604 86.625 624.812 87C627.021 91.7917 630.188 95.5208 634.312 98.1875C634.604 98.4375 634.75 98.75 634.75 99.125C634.75 99.4583 634.583 99.7083 634.25 99.875C631.5 100.667 630.167 104.542 630.25 111.5V133.5C630.25 137.792 631.042 140.417 632.625 141.375C634.375 142.542 635.854 142.083 637.062 140C637.521 139.208 638.042 139.042 638.625 139.5C639.25 139.917 639.25 140.625 638.625 141.625C637.375 143.542 636.188 145.5 635.062 147.5C633.979 149.5 632.875 151.458 631.75 153.375C631.042 154.583 630.062 154.812 628.812 154.062C622.604 151.104 618.958 147.354 617.875 142.812C617.792 142.479 617.542 142.25 617.125 142.125C616.708 142 616.417 142.062 616.25 142.312C613.875 144.229 611.5 146.25 609.125 148.375C606.75 150.458 605.125 152.375 604.25 154.125C603.542 155.125 602.771 155.104 601.938 154.062C599.646 151.396 597.396 149.354 595.188 147.938C593.021 146.521 590.125 145.375 586.5 144.5C585.708 144.208 585.333 143.854 585.375 143.438C585.417 143.021 585.688 142.708 586.188 142.5C587.229 142.125 588.167 141.438 589 140.438C589.875 139.396 590.312 137.688 590.312 135.312V108.875C590.312 104.625 589.521 102.021 587.938 101.062C586.062 99.9375 584.562 100.396 583.438 102.438C582.979 103.229 582.458 103.396 581.875 102.938C581.292 102.479 581.312 101.75 581.938 100.75C583.146 98.875 584.292 96.9375 585.375 94.9375C586.5 92.9375 587.646 90.9375 588.812 88.9375C589.521 87.6875 590.458 87.4583 591.625 88.25H591.688C599.229 92.2083 603 97.625 603 104.5L602.875 136.5C602.875 137.708 603.188 138.521 603.812 138.938L609.188 143.375C609.604 143.75 610.083 143.792 610.625 143.5C614 140.833 616.188 139.125 617.188 138.375C617.438 138.208 617.562 137.938 617.562 137.562ZM663.812 154.75C663.729 153.75 663.188 153 662.188 152.5C661.229 152 660.417 151.5 659.75 151C654.958 147.75 651.562 143.792 649.562 139.125C647.604 134.417 646.5 129.438 646.25 124.188C645.75 112.312 648.958 103.271 655.875 97.0625C658.333 94.8542 661.167 93.0625 664.375 91.6875C667.583 90.2708 670.875 89.125 674.25 88.25C675.292 88.0417 676.062 88.5625 676.562 89.8125L685.562 110.938C685.979 112.062 685.833 112.771 685.125 113.062H685L659.375 123C658.875 123.25 658.667 123.646 658.75 124.188C660.792 133.438 664.208 139.375 669 142C673.792 144.583 678.562 144.958 683.312 143.125C684.146 142.75 684.667 142.812 684.875 143.312C685.125 143.812 684.979 144.188 684.438 144.438C681.062 146.146 677.833 147.896 674.75 149.688C671.708 151.479 668.979 153.354 666.562 155.312C666.188 155.562 665.625 155.646 664.875 155.562C664.167 155.479 663.812 155.208 663.812 154.75ZM658 119.438C658.042 119.771 658.188 120.042 658.438 120.25C658.688 120.417 659 120.417 659.375 120.25L672.688 115.25C673.312 115 673.5 114.562 673.25 113.938L665.625 95.25C665.25 94.3333 664.5 94.2083 663.375 94.875C660.958 96.2917 659.312 99.5208 658.438 104.562C657.562 109.604 657.417 114.562 658 119.438ZM692.188 70.875C691.646 70.2917 691.625 69.7292 692.125 69.1875C692.667 68.6458 693.333 68.75 694.125 69.5C695.083 70.6667 696.062 71.9167 697.062 73.25C698.104 74.5833 698.979 75.9583 699.688 77.375C699.896 77.7917 700.188 78 700.562 78C700.979 78 701.292 77.8333 701.5 77.5C703.958 73.3333 707.375 69.9792 711.75 67.4375C716.125 64.8542 720.854 63.6458 725.938 63.8125C726.896 63.8542 727.396 64.2708 727.438 65.0625C727.479 65.8125 726.979 66.1875 725.938 66.1875C721.812 66.1875 718.5 67.375 716 69.75C713.542 72.125 712.312 76.4583 712.312 82.75L712.25 136.875C712.25 138.208 712.562 139.062 713.188 139.438L717.688 142C718.729 142.375 720.167 141.375 722 139C722.458 138.375 723.021 138.25 723.688 138.625C724.354 138.958 724.333 139.5 723.625 140.25C719.25 145.125 715.896 149.917 713.562 154.625C713.062 155.5 712.312 155.5 711.312 154.625C709.271 152 707.167 149.938 705 148.438C702.833 146.896 699.792 145.729 695.875 144.938C695.208 144.854 694.854 144.562 694.812 144.062C694.812 143.521 695.042 143.146 695.5 142.938C696.542 142.562 697.479 141.875 698.312 140.875C699.188 139.833 699.625 138.125 699.625 135.75L699.562 93.75C699.562 87.75 698.917 83.0208 697.625 79.5625C696.333 76.1042 694.521 73.2083 692.188 70.875Z" fill="black"/>
<path d="M208.549 154.125C207.924 155.167 207.153 155.167 206.237 154.125C201.653 148.417 194.695 144.125 185.362 141.25C184.612 141.042 184.257 140.708 184.299 140.25C184.299 139.792 184.528 139.458 184.987 139.25C187.653 138.333 188.987 135.562 188.987 130.938L188.799 99.0625C188.799 98.6042 188.757 98.25 188.674 98C188.591 97.7083 188.612 97.4583 188.737 97.25C188.903 97 189.195 96.8542 189.612 96.8125C200.695 95.8958 210.549 92.875 219.174 87.75C219.549 87.5417 219.882 87.4792 220.174 87.5625C220.507 87.6458 220.695 87.9375 220.737 88.4375C221.445 92.9375 223.653 97.3542 227.362 101.688C229.403 104.188 231.091 107.604 232.424 111.938C233.799 116.271 234.341 119.875 234.049 122.75C233.632 126.125 232.528 129.167 230.737 131.875C228.945 134.542 226.903 137 224.612 139.25C221.903 141.917 218.987 144.167 215.862 146C212.737 147.833 210.299 150.542 208.549 154.125ZM201.737 98.25L201.987 134.25C201.987 134.875 202.237 135.312 202.737 135.562L213.799 142.438C214.882 143.146 215.882 142.938 216.799 141.812C220.757 137.562 222.549 132.458 222.174 126.5C222.091 122.792 221.362 119.479 219.987 116.562C218.653 113.646 216.987 111.062 214.987 108.812C211.737 105.521 209.257 101.438 207.549 96.5625C207.466 96.3542 207.278 96.1875 206.987 96.0625C206.695 95.8958 206.424 95.875 206.174 96C204.924 96.4583 203.674 96.8542 202.424 97.1875C201.966 97.3542 201.737 97.7083 201.737 98.25ZM261.799 106.125L261.737 136.438C261.737 137.771 262.07 138.625 262.737 139L267.237 141.625C268.195 142.208 269.653 141.188 271.612 138.562C272.028 138.021 272.549 137.917 273.174 138.25C273.799 138.542 273.799 139.062 273.174 139.812C268.799 144.688 265.445 149.479 263.112 154.188C262.403 155.146 261.632 155.146 260.799 154.188C258.466 151.479 256.278 149.417 254.237 148C252.237 146.583 249.278 145.417 245.362 144.5C244.612 144.292 244.237 143.958 244.237 143.5C244.237 143.042 244.507 142.708 245.049 142.5C247.841 142.042 249.216 139.646 249.174 135.312V108.875C249.174 104.625 248.382 102.021 246.799 101.062C244.966 99.8542 243.466 100.292 242.299 102.375C241.841 103.25 241.32 103.458 240.737 103C240.153 102.542 240.174 101.812 240.799 100.812C242.007 98.8958 243.153 96.9375 244.237 94.9375C245.362 92.9375 246.507 90.9375 247.674 88.9375C248.382 87.6875 249.32 87.4583 250.487 88.25C256.612 91.2083 260.278 94.9583 261.487 99.5C261.612 99.9167 261.862 100.188 262.237 100.312C262.612 100.396 262.945 100.25 263.237 99.875L272.862 88.8125C273.112 88.5625 273.403 88.4583 273.737 88.5C274.07 88.5 274.341 88.6667 274.549 89L281.112 101.562C281.278 101.938 281.237 102.292 280.987 102.625L273.487 111.625C273.195 111.917 272.862 112.042 272.487 112C272.153 111.958 271.924 111.771 271.799 111.438L266.737 102.062C266.57 101.812 266.299 101.667 265.924 101.625C265.591 101.542 265.278 101.646 264.987 101.938L262.049 105.5C261.882 105.667 261.799 105.875 261.799 106.125ZM299.924 65.9375C296.632 66.8542 295.028 68.7917 295.112 71.75C295.153 73.625 296.216 75.375 298.299 77C300.424 78.5833 302.903 79.6458 305.737 80.1875C305.778 80.1875 305.82 80.2083 305.862 80.25C314.612 83.5 322.216 87.75 328.674 93C335.174 98.25 338.862 105.875 339.737 115.875V116.062C338.862 123.562 337.049 129.812 334.299 134.812C331.549 139.812 328.299 143.625 324.549 146.25L324.487 146.375C322.737 147.875 320.674 149.208 318.299 150.375C315.924 151.542 313.82 152.75 311.987 154C310.82 154.792 310.07 154.792 309.737 154C307.403 148.458 300.966 144.229 290.424 141.312C289.799 141.188 289.466 140.875 289.424 140.375C289.382 139.875 289.612 139.521 290.112 139.312C292.737 138.312 294.049 135.542 294.049 131L293.924 105C293.924 103.542 294.591 102.854 295.924 102.938C300.091 103.479 304.257 102.062 308.424 98.6875C308.674 98.5208 308.799 98.2083 308.799 97.75C308.716 97.4167 308.507 97.1667 308.174 97C306.591 96.3333 305.007 95.6875 303.424 95.0625C301.841 94.3958 300.299 93.6875 298.799 92.9375C294.924 91.1875 292.049 88.9167 290.174 86.125C288.341 83.3333 287.257 80.5625 286.924 77.8125V77.5C287.966 69.5417 291.966 65.1042 298.924 64.1875C300.007 64.0208 300.591 64.2292 300.674 64.8125C300.799 65.3958 300.549 65.7708 299.924 65.9375ZM312.112 98.75C311.737 98.5833 311.382 98.625 311.049 98.875L308.112 101.188C307.278 101.812 306.862 102.562 306.862 103.438L307.112 134.312C307.112 134.938 307.362 135.375 307.862 135.625L321.362 143.562C322.445 144.229 323.445 143.979 324.362 142.812C328.112 137.521 329.549 130.5 328.674 121.75C327.841 112.958 324.237 106.312 317.862 101.812C316.695 101.021 314.778 100 312.112 98.75Z" fill="black"/>
<path d="M459.701 54.5L470.236 51.2752C494.032 43.9912 519.825 53.2313 533.67 74V74" stroke="#F77701" stroke-linecap="round"/>
<path d="M466.154 133.5V133.5C474.161 132.855 482.141 135.111 488.641 139.858L491.315 141.81C495.905 145.162 501.526 146.784 507.185 146.391L512.819 146" stroke="#F77701" stroke-linecap="round"/>
<path d="M495.94 105.5L479.062 86" stroke="#F77701" stroke-linecap="round"/>
<path d="M29.7888 52.9987C29.6727 52.7482 29.376 52.6403 29.1261 52.7578C28.8762 52.8752 28.7677 53.1736 28.8838 53.4241L29.7888 52.9987ZM64.5394 127.999L29.7888 52.9987L28.8838 53.4241L63.6344 128.424L64.5394 127.999Z" fill="#871ABA"/>
<path d="M83.854 55.7873C83.7379 55.5368 83.4412 55.4289 83.1913 55.5463C82.9414 55.6638 82.8329 55.9621 82.949 56.2127L83.854 55.7873ZM118.605 130.787L83.854 55.7873L82.949 56.2127L117.7 131.213L118.605 130.787Z" fill="#871ABA"/>
<path d="M161.386 55.7873C161.502 55.5368 161.799 55.4289 162.049 55.5463C162.299 55.6638 162.407 55.9621 162.291 56.2127L161.386 55.7873ZM126.635 130.787L161.386 55.7873L162.291 56.2127L127.54 131.213L126.635 130.787Z" fill="#871ABA"/>
<path d="M92.7892 94.2141C92.9061 93.964 92.7986 93.6653 92.5491 93.547C92.2995 93.4287 92.0025 93.5357 91.8856 93.7859L92.7892 94.2141ZM76.9032 128.214L92.7892 94.2141L91.8856 93.7859L75.9996 127.786L76.9032 128.214Z" fill="#871ABA"/>
<path d="M109.997 56.2127C110.113 55.9622 110.005 55.6638 109.755 55.5464C109.505 55.4289 109.208 55.5368 109.092 55.7873L109.997 56.2127ZM101.726 74.062L109.997 56.2127L109.092 55.7873L100.821 73.6366L101.726 74.062Z" fill="#871ABA"/>
</g>
<defs>
<radialGradient id="paint0_radial_3_309" cx="0" cy="0" r="1" gradientUnits="userSpaceOnUse" gradientTransform="translate(73.4728 77.5) rotate(-127.877) scale(374.368 327.004)">
<stop stop-color="#871ABA"/>
<stop offset="1" stop-color="#4E0770" stop-opacity="0"/>
</radialGradient>
<radialGradient id="paint1_radial_3_309" cx="0" cy="0" r="1" gradientUnits="userSpaceOnUse" gradientTransform="translate(470.622 77.5) rotate(-130.392) scale(445.099 389.025)">
<stop stop-color="#F77701"/>
<stop offset="1" stop-color="#F48A0D" stop-opacity="0"/>
</radialGradient>
<clipPath id="clip0_3_309">
<rect width="733" height="217" fill="white"/>
</clipPath>
</defs>
</svg>
